<?xml version="1.0" encoding="utf-8" standalone="no"?>
<!DOCTYPE svg PUBLIC "-//W3C//DTD SVG 1.1//EN"
  "http://www.w3.org/Graphics/SVG/1.1/DTD/svg11.dtd">
<svg xmlns:xlink="http://www.w3.org/1999/xlink" width="309.312pt" height="217.728pt" viewBox="0 0 309.312 217.728" xmlns="http://www.w3.org/2000/svg" version="1.1">
 <metadata>
  <rdf:RDF xmlns:dc="http://purl.org/dc/elements/1.1/" xmlns:cc="http://creativecommons.org/ns#" xmlns:rdf="http://www.w3.org/1999/02/22-rdf-syntax-ns#">
   <cc:Work>
    <dc:type rdf:resource="http://purl.org/dc/dcmitype/StillImage"/>
    <dc:date>2022-06-22T21:45:10.616008</dc:date>
    <dc:format>image/svg+xml</dc:format>
    <dc:creator>
     <cc:Agent>
      <dc:title>Matplotlib v3.5.1, https://matplotlib.org/</dc:title>
     </cc:Agent>
    </dc:creator>
   </cc:Work>
  </rdf:RDF>
 </metadata>
 <defs>
  <style type="text/css">*{stroke-linejoin: round; stroke-linecap: butt}</style>
 </defs>
 <g id="figure_1">
  <g id="patch_1">
   <path d="M 0 217.728 
L 309.312 217.728 
L 309.312 0 
L 0 0 
z
" style="fill: #ffffff"/>
  </g>
  <g id="axes_1">
   <g id="patch_2">
    <path d="M 38.664 193.77792 
L 278.3808 193.77792 
L 278.3808 26.12736 
L 38.664 26.12736 
z
" style="fill: #ffffff"/>
   </g>
   <g id="matplotlib.axis_1">
    <g id="xtick_1">
     <g id="line2d_1">
      <defs>
       <path id="m4a3f385ab2" d="M 0 0 
L 0 3.5 
" style="stroke: #000000; stroke-width: 0.8"/>
      </defs>
      <g>
       <use xlink:href="#m4a3f385ab2" x="49.560218" y="186.15744" style="stroke: #000000; stroke-width: 0.8"/>
      </g>
     </g>
     <g id="text_1">
      <!-- 0 -->
      <g transform="translate(46.378968 200.755877)scale(0.1 -0.1)">
       <defs>
        <path id="DejaVuSans-30" d="M 2034 4250 
Q 1547 4250 1301 3770 
Q 1056 3291 1056 2328 
Q 1056 1369 1301 889 
Q 1547 409 2034 409 
Q 2525 409 2770 889 
Q 3016 1369 3016 2328 
Q 3016 3291 2770 3770 
Q 2525 4250 2034 4250 
z
M 2034 4750 
Q 2819 4750 3233 4129 
Q 3647 3509 3647 2328 
Q 3647 1150 3233 529 
Q 2819 -91 2034 -91 
Q 1250 -91 836 529 
Q 422 1150 422 2328 
Q 422 3509 836 4129 
Q 1250 4750 2034 4750 
z
" transform="scale(0.015625)"/>
       </defs>
       <use xlink:href="#DejaVuSans-30"/>
      </g>
     </g>
    </g>
    <g id="xtick_2">
     <g id="line2d_2">
      <g>
       <use xlink:href="#m4a3f385ab2" x="128.052235" y="186.15744" style="stroke: #000000; stroke-width: 0.8"/>
      </g>
     </g>
     <g id="text_2">
      <!-- $x_0/c$ -->
      <g transform="translate(118.252235 200.755877)scale(0.1 -0.1)">
       <defs>
        <path id="DejaVuSans-Oblique-78" d="M 3841 3500 
L 2234 1784 
L 3219 0 
L 2559 0 
L 1819 1388 
L 531 0 
L -166 0 
L 1556 1844 
L 641 3500 
L 1300 3500 
L 1972 2234 
L 3144 3500 
L 3841 3500 
z
" transform="scale(0.015625)"/>
        <path id="DejaVuSans-2f" d="M 1625 4666 
L 2156 4666 
L 531 -594 
L 0 -594 
L 1625 4666 
z
" transform="scale(0.015625)"/>
        <path id="DejaVuSans-Oblique-63" d="M 3431 3366 
L 3316 2797 
Q 3109 2947 2876 3022 
Q 2644 3097 2394 3097 
Q 2119 3097 1870 3000 
Q 1622 2903 1453 2725 
Q 1184 2453 1037 2087 
Q 891 1722 891 1331 
Q 891 859 1127 628 
Q 1363 397 1844 397 
Q 2081 397 2348 469 
Q 2616 541 2906 684 
L 2797 116 
Q 2547 13 2283 -39 
Q 2019 -91 1741 -91 
Q 1044 -91 669 257 
Q 294 606 294 1253 
Q 294 1797 489 2255 
Q 684 2713 1069 3078 
Q 1331 3328 1684 3456 
Q 2038 3584 2456 3584 
Q 2700 3584 2940 3529 
Q 3181 3475 3431 3366 
z
" transform="scale(0.015625)"/>
       </defs>
       <use xlink:href="#DejaVuSans-Oblique-78" transform="translate(0 0.09375)"/>
       <use xlink:href="#DejaVuSans-30" transform="translate(59.179688 -16.3125)scale(0.7)"/>
       <use xlink:href="#DejaVuSans-2f" transform="translate(106.450195 0.09375)"/>
       <use xlink:href="#DejaVuSans-Oblique-63" transform="translate(140.141602 0.09375)"/>
      </g>
     </g>
    </g>
    <g id="xtick_3">
     <g id="line2d_3">
      <g>
       <use xlink:href="#m4a3f385ab2" x="191.281915" y="186.15744" style="stroke: #000000; stroke-width: 0.8"/>
      </g>
     </g>
     <g id="text_3">
      <!-- $x_1/c$ -->
      <g transform="translate(181.481915 200.755877)scale(0.1 -0.1)">
       <defs>
        <path id="DejaVuSans-31" d="M 794 531 
L 1825 531 
L 1825 4091 
L 703 3866 
L 703 4441 
L 1819 4666 
L 2450 4666 
L 2450 531 
L 3481 531 
L 3481 0 
L 794 0 
L 794 531 
z
" transform="scale(0.015625)"/>
       </defs>
       <use xlink:href="#DejaVuSans-Oblique-78" transform="translate(0 0.09375)"/>
       <use xlink:href="#DejaVuSans-31" transform="translate(59.179688 -16.3125)scale(0.7)"/>
       <use xlink:href="#DejaVuSans-2f" transform="translate(106.450195 0.09375)"/>
       <use xlink:href="#DejaVuSans-Oblique-63" transform="translate(140.141602 0.09375)"/>
      </g>
     </g>
    </g>
    <g id="xtick_4">
     <g id="line2d_4">
      <g>
       <use xlink:href="#m4a3f385ab2" x="254.511596" y="186.15744" style="stroke: #000000; stroke-width: 0.8"/>
      </g>
     </g>
     <g id="text_4">
      <!-- $x_2/c$ -->
      <g transform="translate(244.711596 200.755877)scale(0.1 -0.1)">
       <defs>
        <path id="DejaVuSans-32" d="M 1228 531 
L 3431 531 
L 3431 0 
L 469 0 
L 469 531 
Q 828 903 1448 1529 
Q 2069 2156 2228 2338 
Q 2531 2678 2651 2914 
Q 2772 3150 2772 3378 
Q 2772 3750 2511 3984 
Q 2250 4219 1831 4219 
Q 1534 4219 1204 4116 
Q 875 4013 500 3803 
L 500 4441 
Q 881 4594 1212 4672 
Q 1544 4750 1819 4750 
Q 2544 4750 2975 4387 
Q 3406 4025 3406 3419 
Q 3406 3131 3298 2873 
Q 3191 2616 2906 2266 
Q 2828 2175 2409 1742 
Q 1991 1309 1228 531 
z
" transform="scale(0.015625)"/>
       </defs>
       <use xlink:href="#DejaVuSans-Oblique-78" transform="translate(0 0.09375)"/>
       <use xlink:href="#DejaVuSans-32" transform="translate(59.179688 -16.3125)scale(0.7)"/>
       <use xlink:href="#DejaVuSans-2f" transform="translate(106.450195 0.09375)"/>
       <use xlink:href="#DejaVuSans-Oblique-63" transform="translate(140.141602 0.09375)"/>
      </g>
     </g>
    </g>
    <g id="text_5">
     <!-- Estimated distance, m -->
     <g transform="translate(102.439588 214.434003)scale(0.1 -0.1)">
      <defs>
       <path id="DejaVuSans-45" d="M 628 4666 
L 3578 4666 
L 3578 4134 
L 1259 4134 
L 1259 2753 
L 3481 2753 
L 3481 2222 
L 1259 2222 
L 1259 531 
L 3634 531 
L 3634 0 
L 628 0 
L 628 4666 
z
" transform="scale(0.015625)"/>
       <path id="DejaVuSans-73" d="M 2834 3397 
L 2834 2853 
Q 2591 2978 2328 3040 
Q 2066 3103 1784 3103 
Q 1356 3103 1142 2972 
Q 928 2841 928 2578 
Q 928 2378 1081 2264 
Q 1234 2150 1697 2047 
L 1894 2003 
Q 2506 1872 2764 1633 
Q 3022 1394 3022 966 
Q 3022 478 2636 193 
Q 2250 -91 1575 -91 
Q 1294 -91 989 -36 
Q 684 19 347 128 
L 347 722 
Q 666 556 975 473 
Q 1284 391 1588 391 
Q 1994 391 2212 530 
Q 2431 669 2431 922 
Q 2431 1156 2273 1281 
Q 2116 1406 1581 1522 
L 1381 1569 
Q 847 1681 609 1914 
Q 372 2147 372 2553 
Q 372 3047 722 3315 
Q 1072 3584 1716 3584 
Q 2034 3584 2315 3537 
Q 2597 3491 2834 3397 
z
" transform="scale(0.015625)"/>
       <path id="DejaVuSans-74" d="M 1172 4494 
L 1172 3500 
L 2356 3500 
L 2356 3053 
L 1172 3053 
L 1172 1153 
Q 1172 725 1289 603 
Q 1406 481 1766 481 
L 2356 481 
L 2356 0 
L 1766 0 
Q 1100 0 847 248 
Q 594 497 594 1153 
L 594 3053 
L 172 3053 
L 172 3500 
L 594 3500 
L 594 4494 
L 1172 4494 
z
" transform="scale(0.015625)"/>
       <path id="DejaVuSans-69" d="M 603 3500 
L 1178 3500 
L 1178 0 
L 603 0 
L 603 3500 
z
M 603 4863 
L 1178 4863 
L 1178 4134 
L 603 4134 
L 603 4863 
z
" transform="scale(0.015625)"/>
       <path id="DejaVuSans-6d" d="M 3328 2828 
Q 3544 3216 3844 3400 
Q 4144 3584 4550 3584 
Q 5097 3584 5394 3201 
Q 5691 2819 5691 2113 
L 5691 0 
L 5113 0 
L 5113 2094 
Q 5113 2597 4934 2840 
Q 4756 3084 4391 3084 
Q 3944 3084 3684 2787 
Q 3425 2491 3425 1978 
L 3425 0 
L 2847 0 
L 2847 2094 
Q 2847 2600 2669 2842 
Q 2491 3084 2119 3084 
Q 1678 3084 1418 2786 
Q 1159 2488 1159 1978 
L 1159 0 
L 581 0 
L 581 3500 
L 1159 3500 
L 1159 2956 
Q 1356 3278 1631 3431 
Q 1906 3584 2284 3584 
Q 2666 3584 2933 3390 
Q 3200 3197 3328 2828 
z
" transform="scale(0.015625)"/>
       <path id="DejaVuSans-61" d="M 2194 1759 
Q 1497 1759 1228 1600 
Q 959 1441 959 1056 
Q 959 750 1161 570 
Q 1363 391 1709 391 
Q 2188 391 2477 730 
Q 2766 1069 2766 1631 
L 2766 1759 
L 2194 1759 
z
M 3341 1997 
L 3341 0 
L 2766 0 
L 2766 531 
Q 2569 213 2275 61 
Q 1981 -91 1556 -91 
Q 1019 -91 701 211 
Q 384 513 384 1019 
Q 384 1609 779 1909 
Q 1175 2209 1959 2209 
L 2766 2209 
L 2766 2266 
Q 2766 2663 2505 2880 
Q 2244 3097 1772 3097 
Q 1472 3097 1187 3025 
Q 903 2953 641 2809 
L 641 3341 
Q 956 3463 1253 3523 
Q 1550 3584 1831 3584 
Q 2591 3584 2966 3190 
Q 3341 2797 3341 1997 
z
" transform="scale(0.015625)"/>
       <path id="DejaVuSans-65" d="M 3597 1894 
L 3597 1613 
L 953 1613 
Q 991 1019 1311 708 
Q 1631 397 2203 397 
Q 2534 397 2845 478 
Q 3156 559 3463 722 
L 3463 178 
Q 3153 47 2828 -22 
Q 2503 -91 2169 -91 
Q 1331 -91 842 396 
Q 353 884 353 1716 
Q 353 2575 817 3079 
Q 1281 3584 2069 3584 
Q 2775 3584 3186 3129 
Q 3597 2675 3597 1894 
z
M 3022 2063 
Q 3016 2534 2758 2815 
Q 2500 3097 2075 3097 
Q 1594 3097 1305 2825 
Q 1016 2553 972 2059 
L 3022 2063 
z
" transform="scale(0.015625)"/>
       <path id="DejaVuSans-64" d="M 2906 2969 
L 2906 4863 
L 3481 4863 
L 3481 0 
L 2906 0 
L 2906 525 
Q 2725 213 2448 61 
Q 2172 -91 1784 -91 
Q 1150 -91 751 415 
Q 353 922 353 1747 
Q 353 2572 751 3078 
Q 1150 3584 1784 3584 
Q 2172 3584 2448 3432 
Q 2725 3281 2906 2969 
z
M 947 1747 
Q 947 1113 1208 752 
Q 1469 391 1925 391 
Q 2381 391 2643 752 
Q 2906 1113 2906 1747 
Q 2906 2381 2643 2742 
Q 2381 3103 1925 3103 
Q 1469 3103 1208 2742 
Q 947 2381 947 1747 
z
" transform="scale(0.015625)"/>
       <path id="DejaVuSans-20" transform="scale(0.015625)"/>
       <path id="DejaVuSans-6e" d="M 3513 2113 
L 3513 0 
L 2938 0 
L 2938 2094 
Q 2938 2591 2744 2837 
Q 2550 3084 2163 3084 
Q 1697 3084 1428 2787 
Q 1159 2491 1159 1978 
L 1159 0 
L 581 0 
L 581 3500 
L 1159 3500 
L 1159 2956 
Q 1366 3272 1645 3428 
Q 1925 3584 2291 3584 
Q 2894 3584 3203 3211 
Q 3513 2838 3513 2113 
z
" transform="scale(0.015625)"/>
       <path id="DejaVuSans-63" d="M 3122 3366 
L 3122 2828 
Q 2878 2963 2633 3030 
Q 2388 3097 2138 3097 
Q 1578 3097 1268 2742 
Q 959 2388 959 1747 
Q 959 1106 1268 751 
Q 1578 397 2138 397 
Q 2388 397 2633 464 
Q 2878 531 3122 666 
L 3122 134 
Q 2881 22 2623 -34 
Q 2366 -91 2075 -91 
Q 1284 -91 818 406 
Q 353 903 353 1747 
Q 353 2603 823 3093 
Q 1294 3584 2113 3584 
Q 2378 3584 2631 3529 
Q 2884 3475 3122 3366 
z
" transform="scale(0.015625)"/>
       <path id="DejaVuSans-2c" d="M 750 794 
L 1409 794 
L 1409 256 
L 897 -744 
L 494 -744 
L 750 256 
L 750 794 
z
" transform="scale(0.015625)"/>
      </defs>
      <use xlink:href="#DejaVuSans-45"/>
      <use xlink:href="#DejaVuSans-73" x="63.183594"/>
      <use xlink:href="#DejaVuSans-74" x="115.283203"/>
      <use xlink:href="#DejaVuSans-69" x="154.492188"/>
      <use xlink:href="#DejaVuSans-6d" x="182.275391"/>
      <use xlink:href="#DejaVuSans-61" x="279.6875"/>
      <use xlink:href="#DejaVuSans-74" x="340.966797"/>
      <use xlink:href="#DejaVuSans-65" x="380.175781"/>
      <use xlink:href="#DejaVuSans-64" x="441.699219"/>
      <use xlink:href="#DejaVuSans-20" x="505.175781"/>
      <use xlink:href="#DejaVuSans-64" x="536.962891"/>
      <use xlink:href="#DejaVuSans-69" x="600.439453"/>
      <use xlink:href="#DejaVuSans-73" x="628.222656"/>
      <use xlink:href="#DejaVuSans-74" x="680.322266"/>
      <use xlink:href="#DejaVuSans-61" x="719.53125"/>
      <use xlink:href="#DejaVuSans-6e" x="780.810547"/>
      <use xlink:href="#DejaVuSans-63" x="844.189453"/>
      <use xlink:href="#DejaVuSans-65" x="899.169922"/>
      <use xlink:href="#DejaVuSans-2c" x="960.693359"/>
      <use xlink:href="#DejaVuSans-20" x="992.480469"/>
      <use xlink:href="#DejaVuSans-6d" x="1024.267578"/>
     </g>
    </g>
   </g>
   <g id="matplotlib.axis_2"/>
   <g id="line2d_5">
    <path d="M 49.560218 185.476016 
L 49.887268 186.147434 
L 49.996285 185.974612 
L 50.214318 185.49724 
L 50.541368 186.061039 
L 50.650385 185.923313 
L 50.868418 185.554975 
L 51.304485 185.860924 
L 51.631535 185.599022 
L 52.176619 185.711642 
L 52.394652 185.428412 
L 52.721702 185.93636 
L 52.830719 185.771134 
L 53.048752 185.230366 
L 53.157769 185.418114 
L 53.375802 186.039286 
L 53.702852 185.082183 
L 54.029902 186.115414 
L 54.356953 185.014904 
L 54.684003 186.149068 
L 55.011053 185.042253 
L 55.338103 186.135318 
L 55.665153 185.156976 
L 55.992203 186.08103 
L 56.319253 185.332681 
L 56.646303 186.002117 
L 56.973353 185.530708 
L 57.300403 185.917927 
L 57.845487 185.729128 
L 58.172537 185.973943 
L 58.499587 185.616751 
L 58.826637 186.101381 
L 59.153687 185.524741 
L 59.480737 186.144411 
L 59.807787 185.467999 
L 60.134837 186.095994 
L 60.461887 185.450525 
L 60.788937 185.970476 
L 61.115987 185.465276 
L 61.443037 185.799893 
L 61.988121 185.524874 
L 62.315171 185.690443 
L 62.642221 185.298799 
L 62.969271 185.808912 
L 63.296321 185.111892 
L 63.623371 185.924806 
L 63.950421 185.00143 
L 64.277471 186.016553 
L 64.604521 184.988703 
L 64.931571 186.070466 
L 65.258622 185.073321 
L 65.585672 186.083734 
L 65.803705 185.19008 
L 65.912722 185.233091 
L 66.130755 186.088084 
L 66.239772 186.063655 
L 66.457805 185.379442 
L 66.566822 185.429595 
L 66.784855 186.03493 
L 66.893872 186.023519 
L 67.111905 185.6083 
L 67.220922 185.618012 
L 67.547972 185.976653 
L 68.093056 185.799839 
L 68.311089 186.038098 
L 68.420106 186.006587 
L 68.747156 185.660758 
L 69.074206 186.095759 
L 69.401256 185.535886 
L 69.619289 186.113734 
L 69.728306 186.08425 
L 69.946339 185.429269 
L 70.055356 185.43791 
L 70.273389 186.026386 
L 70.382406 185.979925 
L 70.600439 185.359061 
L 70.709456 185.369403 
L 70.927489 185.851787 
L 71.036506 185.812408 
L 71.363556 185.324458 
L 71.690606 185.625587 
L 72.126673 185.282123 
L 72.56274 185.47109 
L 72.780773 185.08582 
L 72.88979 185.115966 
L 73.107823 185.622774 
L 73.21684 185.587148 
L 73.434873 184.917338 
L 73.54389 184.953238 
L 73.761923 185.754889 
L 73.87094 185.708675 
L 74.088973 184.813745 
L 74.19799 184.894966 
L 74.416024 185.905149 
L 74.52504 185.816665 
L 74.743074 184.804474 
L 74.85209 184.949856 
L 75.070124 186.039168 
L 75.17914 185.90008 
L 75.397174 184.902042 
L 75.50619 185.100951 
L 75.724224 186.126936 
L 75.833241 185.95691 
L 76.051274 185.096391 
L 76.160291 185.309517 
L 76.378324 186.149867 
L 76.487341 185.991708 
L 76.705374 185.35483 
L 76.923407 185.891954 
L 77.032424 186.104061 
L 77.141441 186.010699 
L 77.359474 185.628068 
L 77.577508 185.870387 
L 77.795541 186.016459 
L 78.231608 185.76964 
L 78.667674 186.006396 
L 78.885708 185.610049 
L 78.994725 185.689086 
L 79.212758 186.153982 
L 79.321775 186.035604 
L 79.539808 185.424701 
L 79.648825 185.522284 
L 79.866858 186.103564 
L 79.975875 185.94717 
L 80.193908 185.250431 
L 80.302925 185.363939 
L 80.520958 185.937732 
L 80.629975 185.767105 
L 80.848008 185.118742 
L 80.957025 185.217485 
L 81.175058 185.676639 
L 81.393092 185.245543 
L 81.502108 185.049155 
L 81.611125 185.082504 
L 81.829158 185.364012 
L 82.047192 185.194008 
L 82.265225 184.959627 
L 82.483259 185.058564 
L 82.701292 185.232654 
L 83.028342 184.700773 
L 83.137359 184.820836 
L 83.355392 185.356637 
L 83.464409 185.202725 
L 83.682442 184.508513 
L 83.791459 184.698708 
L 84.009492 185.541369 
L 84.118509 185.327622 
L 84.336542 184.429904 
L 84.445559 184.71531 
L 84.663592 185.749666 
L 84.772609 185.463131 
L 84.990642 184.489272 
L 85.317693 185.941267 
L 85.426709 185.600028 
L 85.644743 184.683977 
L 85.971793 186.081913 
L 86.298843 184.981826 
L 86.625893 186.149596 
L 86.952943 185.325865 
L 87.279993 186.136626 
L 87.607043 185.645893 
L 88.04311 186.046223 
L 88.479177 185.77694 
L 88.806227 186.128907 
L 89.133277 185.529205 
L 89.460327 186.140704 
L 89.787377 185.240368 
L 90.114427 185.991162 
L 90.441477 184.954122 
L 90.768527 185.693724 
L 91.095577 184.708604 
L 91.422627 185.295513 
L 91.749677 184.530511 
L 92.185744 184.782018 
L 92.512794 184.345402 
L 92.730827 184.499075 
L 92.948861 184.634349 
L 93.275911 184.023156 
L 93.602961 184.789235 
L 93.930011 183.816063 
L 94.257061 185.037283 
L 94.584111 183.797505 
L 94.911161 185.334457 
L 95.238211 183.980847 
L 95.565261 185.631999 
L 95.892312 184.338006 
L 96.219362 185.885205 
L 96.437395 184.77851 
L 96.546412 184.801513 
L 96.873462 186.059035 
L 97.091495 185.235439 
L 97.200512 185.276292 
L 97.527562 186.129879 
L 97.854612 185.659028 
L 98.181662 186.084231 
L 98.399695 185.992989 
L 98.726745 185.744812 
L 99.053796 186.120586 
L 99.380846 185.350925 
L 99.707896 186.002529 
L 100.034946 184.863922 
L 100.361996 185.63365 
L 100.689046 184.339334 
L 100.907079 185.116356 
L 101.016096 185.061158 
L 101.343146 183.832831 
L 101.561179 184.437442 
L 101.670196 184.379449 
L 101.997246 183.39466 
L 102.324296 183.713381 
L 102.86938 183.02258 
L 103.087413 183.326224 
L 103.19643 183.232105 
L 103.52348 182.523568 
L 103.85053 183.392295 
L 104.17758 182.30554 
L 104.50463 183.738475 
L 104.722663 182.340009 
L 104.83168 182.424703 
L 105.15873 184.220309 
L 105.376764 182.669718 
L 105.48578 182.873545 
L 105.703814 184.823578 
L 105.81283 184.770928 
L 106.030864 183.267408 
L 106.13988 183.574693 
L 106.357914 185.426868 
L 106.46693 185.314464 
L 106.684964 184.049278 
L 106.793981 184.389765 
L 107.012014 185.893466 
L 107.121031 185.771661 
L 107.339064 184.878517 
L 107.448081 185.142573 
L 107.666114 186.119642 
L 107.775131 186.063875 
L 107.993164 185.5844 
L 108.102181 185.652576 
L 108.429231 186.116962 
L 108.647264 185.992664 
L 108.865298 185.577189 
L 108.974314 185.601356 
L 109.192348 186.102895 
L 109.301364 185.96174 
L 109.628414 184.831706 
L 109.846448 185.653824 
L 109.955465 185.417197 
L 110.282515 183.770325 
L 110.500548 184.72859 
L 110.609565 184.37629 
L 110.827598 182.557287 
L 110.936615 182.496981 
L 111.154648 183.375025 
L 111.263665 182.955897 
L 111.481698 181.205677 
L 111.590715 181.120335 
L 111.808748 181.731007 
L 111.917765 181.360385 
L 112.244815 179.772889 
L 112.462848 180.014521 
L 112.571865 179.850068 
L 113.007932 178.428501 
L 113.116949 178.494262 
L 113.334982 178.753463 
L 113.553015 177.771025 
L 113.662032 177.29401 
L 113.771049 177.443835 
L 113.989082 178.643857 
L 114.098099 178.361313 
L 114.316132 176.728862 
L 114.425149 177.086786 
L 114.643182 179.166526 
L 114.752199 178.854581 
L 114.970232 176.89631 
L 115.079249 177.542578 
L 115.297282 180.264643 
L 115.406299 179.869313 
L 115.624332 177.853531 
L 115.842366 180.64154 
L 115.951382 181.778799 
L 116.060399 181.302372 
L 116.278433 179.511453 
L 116.605483 183.458108 
L 116.714499 182.96631 
L 116.932533 181.613275 
L 117.259583 184.978244 
L 117.586633 183.7393 
L 117.913683 185.96298 
L 118.240733 185.341209 
L 118.785816 186.12058 
L 119.00385 185.203267 
L 119.221883 184.700898 
L 119.439917 185.288115 
L 119.65795 183.023705 
L 119.875983 181.656221 
L 120.094017 182.365714 
L 120.31205 178.644914 
L 120.530083 176.538276 
L 120.6391 177.120003 
L 120.748117 176.897008 
L 121.184184 169.101959 
L 121.2932 169.344412 
L 121.402217 168.624038 
L 121.838284 159.233017 
L 121.9473 158.819221 
L 122.056317 157.551382 
L 122.710417 143.979304 
L 123.691567 120.848541 
L 124.018618 111.942276 
L 124.127634 111.467818 
L 124.236651 109.744225 
L 124.672718 95.310693 
L 124.781734 96.366451 
L 124.890751 95.215992 
L 125.217801 78.822934 
L 125.326818 79.663815 
L 125.435835 82.380065 
L 125.544851 81.576808 
L 125.871901 63.400168 
L 126.089935 70.29434 
L 126.198951 69.536771 
L 126.526001 50.670249 
L 126.744035 60.762519 
L 126.853052 59.755893 
L 127.180102 41.525034 
L 127.398135 54.270371 
L 127.507152 52.808842 
L 127.725185 36.034961 
L 127.834202 36.578806 
L 128.052235 51.119516 
L 128.161252 49.147645 
L 128.379285 33.74784 
L 128.488302 36.108393 
L 128.706335 51.425139 
L 128.815352 49.063201 
L 129.033385 36.081176 
L 129.142402 40.036047 
L 129.360435 55.12298 
L 129.469452 52.649318 
L 129.687485 42.851009 
L 130.014536 61.981306 
L 130.123552 59.775437 
L 130.341586 53.524906 
L 130.668636 71.615586 
L 130.777652 70.075421 
L 130.886669 66.7928 
L 130.995686 67.285335 
L 131.322736 83.506185 
L 131.431752 82.958919 
L 131.540769 81.566134 
L 131.649786 83.125496 
L 131.976836 97.021317 
L 132.194869 97.894297 
L 132.412903 103.981975 
L 132.739953 113.245258 
L 132.957986 116.750697 
L 134.15717 145.766044 
L 134.48422 149.367195 
L 134.81127 158.487696 
L 135.029303 158.800714 
L 135.13832 160.403023 
L 135.46537 168.729254 
L 135.683403 168.108906 
L 135.79242 169.512993 
L 136.11947 176.377558 
L 136.337504 175.323614 
L 136.44652 176.54193 
L 136.77357 181.562948 
L 136.991604 180.518461 
L 137.209637 183.246689 
L 137.42767 184.602733 
L 137.645704 183.870827 
L 137.972754 185.983285 
L 138.081771 185.930661 
L 138.299804 185.640317 
L 138.626854 186.029114 
L 138.844887 186.112206 
L 138.953904 186.146777 
L 139.280954 185.176887 
L 139.389971 185.34786 
L 139.608004 185.746216 
L 139.935054 183.915578 
L 140.153088 184.863604 
L 140.262104 184.803631 
L 140.589154 182.641556 
L 140.807188 183.807688 
L 140.916205 183.663263 
L 141.243255 181.629539 
L 141.461288 182.80051 
L 141.570305 182.618788 
L 141.788338 181.055142 
L 141.897355 181.027607 
L 142.115388 182.021185 
L 142.224405 181.887489 
L 142.442438 180.850441 
L 142.551455 180.872306 
L 142.769488 181.584652 
L 142.878505 181.593005 
L 143.205555 181.11689 
L 143.750638 181.805636 
L 143.968672 181.630472 
L 144.186705 182.325859 
L 144.404739 182.693415 
L 144.622772 182.219252 
L 144.731789 182.506402 
L 144.949822 183.66933 
L 145.058839 183.6371 
L 145.276872 182.969917 
L 145.385889 183.332556 
L 145.603922 184.615184 
L 145.712939 184.498371 
L 145.930972 183.789422 
L 146.258022 185.385586 
L 146.367039 185.184276 
L 146.585072 184.58392 
L 146.912122 185.893377 
L 147.239173 185.268501 
L 147.566223 186.115443 
L 147.784256 185.717369 
L 147.893273 185.777486 
L 148.111306 186.137304 
L 148.438356 185.979322 
L 148.65639 186.101746 
L 148.98344 185.916982 
L 149.201473 186.154057 
L 149.528523 185.578008 
L 149.855573 186.050384 
L 150.182623 185.274289 
L 150.400657 185.907039 
L 150.509673 185.822814 
L 150.727707 184.987948 
L 150.836723 185.028926 
L 151.054757 185.699527 
L 151.163773 185.547989 
L 151.381807 184.768092 
L 151.490823 184.876904 
L 151.708857 185.476111 
L 151.817874 185.303331 
L 152.035907 184.693155 
L 152.144924 184.825401 
L 152.362957 185.286515 
L 152.690007 184.759791 
L 152.799024 184.860786 
L 153.017057 185.172348 
L 153.562141 185.052167 
L 153.889191 185.231475 
L 154.216241 185.108491 
L 154.543291 185.50356 
L 154.870341 185.228461 
L 155.197391 185.759934 
L 155.524441 185.400411 
L 155.851491 185.949196 
L 156.069524 185.549582 
L 156.178541 185.602918 
L 156.396575 186.083702 
L 156.505591 186.042893 
L 156.723625 185.694283 
L 157.050675 186.153772 
L 157.159691 186.039636 
L 157.377725 185.828139 
L 157.704775 186.119901 
L 157.922808 185.863129 
L 158.249858 186.142308 
L 158.576908 185.861178 
L 158.794942 186.15644 
L 159.012975 185.84277 
L 159.121992 185.733818 
L 159.449042 186.141015 
L 159.776092 185.655738 
L 160.103142 186.074433 
L 160.321175 185.574017 
L 160.430192 185.628914 
L 160.648225 186.088315 
L 160.757242 185.984564 
L 160.975276 185.531071 
L 161.302326 186.04671 
L 161.411342 185.902953 
L 161.629376 185.560412 
L 161.956426 185.998505 
L 162.283476 185.644677 
L 162.610526 185.961988 
L 162.937576 185.752695 
L 163.264626 185.951173 
L 163.591676 185.849542 
L 164.13676 185.946803 
L 164.46381 185.943722 
L 164.681843 186.045192 
L 165.008893 185.888948 
L 165.335943 186.082183 
L 165.662993 185.873055 
L 165.881027 186.111629 
L 165.990043 186.065533 
L 166.208077 185.789403 
L 166.644143 185.990184 
L 166.862177 185.710711 
L 167.189227 186.095775 
L 167.516277 185.657659 
L 167.73431 186.111716 
L 167.843327 186.030861 
L 168.06136 185.534451 
L 168.170377 185.650532 
L 168.38841 186.117128 
L 168.715461 185.489169 
L 169.042511 186.103025 
L 169.369561 185.52076 
L 169.696611 186.07728 
L 169.914644 185.576383 
L 170.023661 185.62487 
L 170.241694 186.114078 
L 170.350711 186.051749 
L 170.568744 185.666952 
L 171.004811 186.036885 
L 171.222844 185.807725 
L 171.549894 186.139714 
L 171.876945 185.956584 
L 172.094978 186.149485 
L 172.531045 186.063625 
L 172.749078 186.14008 
L 173.076128 186.036837 
L 173.403178 186.079414 
L 173.730228 185.973933 
L 174.057278 185.977721 
L 174.602362 185.823858 
L 174.820395 185.791625 
L 175.147445 185.497346 
L 175.365479 185.713009 
L 175.474495 185.618675 
L 175.692529 185.13635 
L 175.801545 185.176412 
L 176.019579 185.582885 
L 176.128595 185.413609 
L 176.346629 184.748482 
L 176.455646 184.889556 
L 176.673679 185.475307 
L 177.000729 184.420309 
L 177.327779 185.405832 
L 177.654829 184.228835 
L 177.981879 185.389927 
L 178.308929 184.23068 
L 178.635979 185.440701 
L 178.854013 184.389247 
L 178.963029 184.444691 
L 179.181063 185.587335 
L 179.290079 185.563277 
L 179.508113 184.679653 
L 179.61713 184.840758 
L 179.835163 185.823087 
L 179.94418 185.745867 
L 180.162213 185.129895 
L 180.380246 185.775105 
L 180.489263 186.036896 
L 180.59828 185.949105 
L 180.816313 185.635014 
L 181.143363 186.154465 
L 181.470413 186.037845 
L 181.688447 186.118837 
L 182.015497 186.118956 
L 182.124513 186.14728 
L 182.342547 185.853769 
L 182.56058 185.712475 
L 182.778614 185.7649 
L 183.21468 184.842651 
L 183.323697 184.855275 
L 183.432714 184.715223 
L 184.958947 179.422454 
L 185.395014 176.693001 
L 185.504031 176.688855 
L 185.613048 176.136433 
L 185.940098 172.358496 
L 186.049114 172.497986 
L 186.158131 172.827197 
L 186.267148 172.164929 
L 186.594198 167.201316 
L 186.812231 168.475904 
L 186.921248 167.59175 
L 187.248298 161.63776 
L 187.466331 163.796776 
L 187.575348 162.569499 
L 187.902398 156.003919 
L 188.120431 158.987401 
L 188.229448 157.32312 
L 188.447481 150.484554 
L 188.556498 150.660235 
L 188.774532 154.276255 
L 188.992565 147.910584 
L 189.101582 145.134023 
L 189.210598 145.952773 
L 189.428632 149.915562 
L 189.755682 140.71527 
L 189.864698 142.178782 
L 190.082732 146.169854 
L 190.409782 137.556061 
L 190.736832 143.298791 
L 191.063882 135.878919 
L 191.390932 141.534302 
L 191.717982 135.779825 
L 192.045032 141.053993 
L 192.263066 136.947368 
L 192.372082 137.224351 
L 192.699132 141.954681 
L 192.917166 139.45019 
L 193.026182 140.060313 
L 193.353233 144.23102 
L 193.571266 143.340937 
L 193.680283 144.043222 
L 194.007333 147.764336 
L 194.334383 148.869083 
L 195.533566 159.809999 
L 195.642583 159.737772 
L 195.7516 159.877179 
L 195.969633 163.188132 
L 196.187666 165.576608 
L 196.4057 165.093334 
L 196.623733 168.71244 
L 196.841767 170.897383 
L 197.0598 170.09599 
L 197.495867 175.532368 
L 197.7139 174.650205 
L 198.04095 179.468795 
L 198.149967 179.334162 
L 198.368 178.559312 
L 198.69505 182.503024 
L 198.804067 182.244351 
L 198.913084 181.60646 
L 199.0221 181.681781 
L 199.34915 184.554394 
L 199.567184 183.837549 
L 199.676201 183.945323 
L 200.003251 185.715737 
L 200.221284 185.280931 
L 200.330301 185.354966 
L 200.657351 186.143748 
L 201.093418 185.996151 
L 201.311451 186.028463 
L 201.529484 186.136134 
L 201.747518 185.741182 
L 201.965551 185.565123 
L 202.183584 185.814549 
L 202.619651 184.932212 
L 202.837685 185.21554 
L 203.164735 184.23015 
L 203.273751 184.277448 
L 203.491785 184.514545 
L 203.927851 183.711476 
L 204.145885 183.871156 
L 204.690968 183.333107 
L 205.018018 183.44032 
L 205.345068 183.048578 
L 205.672118 183.589872 
L 205.999169 183.013329 
L 206.326219 183.943941 
L 206.653269 183.223117 
L 206.980319 184.421227 
L 207.307369 183.63672 
L 207.634419 184.933443 
L 207.961469 184.183534 
L 208.288519 185.402713 
L 208.506552 184.69676 
L 208.615569 184.775984 
L 208.942619 185.772968 
L 209.160653 185.212939 
L 209.269669 185.324963 
L 209.487703 186.022106 
L 209.596719 186.014438 
L 209.814753 185.653698 
L 210.032786 185.993227 
L 210.250819 186.122067 
L 210.468853 185.970342 
L 211.013936 186.119373 
L 211.23197 186.104013 
L 211.450003 185.964189 
L 211.88607 186.029296 
L 212.104103 185.74771 
L 212.431153 186.017224 
L 212.758203 185.517245 
L 213.085253 185.803022 
L 213.412303 185.315901 
L 213.739354 185.557307 
L 214.066404 185.172084 
L 214.393454 185.339149 
L 214.82952 185.094482 
L 215.265587 185.19147 
L 215.592637 185.028812 
L 215.919687 185.300154 
L 216.246737 185.019419 
L 216.573788 185.459732 
L 216.791821 185.059067 
L 216.900838 185.111717 
L 217.118871 185.652628 
L 217.227888 185.636657 
L 217.445921 185.191431 
L 217.554938 185.287937 
L 217.772971 185.855906 
L 217.881988 185.800908 
L 218.100021 185.378106 
L 218.209038 185.514309 
L 218.427071 186.021958 
L 218.536088 185.931378 
L 218.754121 185.593888 
L 219.081171 186.123997 
L 219.408221 185.80767 
L 219.735272 186.152361 
L 220.062322 185.987941 
L 220.280355 186.138742 
L 220.716422 186.109163 
L 220.934455 186.086129 
L 221.152488 186.036773 
L 221.370522 186.15744 
L 221.806589 185.989265 
L 222.024622 186.133877 
L 222.351672 185.815613 
L 222.678722 186.054542 
L 223.005772 185.730136 
L 223.332822 185.946785 
L 223.659872 185.673787 
L 223.877906 185.872683 
L 224.095939 185.72949 
L 224.313973 185.647397 
L 224.641023 185.771303 
L 225.077089 185.666193 
L 225.513156 185.723689 
L 225.731189 185.637148 
L 226.167256 185.798757 
L 226.38529 185.640429 
L 226.821356 185.870526 
L 227.03939 185.680217 
L 227.36644 186.033612 
L 227.69349 185.754096 
L 228.02054 186.090003 
L 228.34759 185.852215 
L 228.565623 186.137317 
L 228.783657 185.961946 
L 228.892674 185.883942 
L 229.32874 186.071234 
L 229.546774 185.946498 
L 229.873824 186.124963 
L 230.091857 185.943619 
L 230.418907 186.152327 
L 230.745957 185.936379 
L 230.963991 186.153078 
L 231.182024 185.963326 
L 231.291041 185.872285 
L 231.727107 186.040453 
L 231.945141 185.832446 
L 232.272191 186.105589 
L 232.599241 185.823732 
L 232.817274 186.079774 
L 232.926291 186.053431 
L 233.144324 185.807269 
L 233.362358 185.971781 
L 233.580391 186.007214 
L 233.798425 185.830907 
L 234.234491 185.982984 
L 234.452525 185.880996 
L 234.997608 185.954707 
L 235.324658 185.971267 
L 235.651708 186.005848 
L 235.978758 185.966197 
L 236.305808 186.036709 
L 236.523842 185.928262 
L 236.959909 186.023831 
L 237.177942 185.889741 
L 237.504992 186.078693 
L 237.832042 185.842669 
L 238.050075 186.088698 
L 238.268109 185.830769 
L 238.377126 185.713543 
L 238.704176 186.068438 
L 239.031226 185.597638 
L 239.358276 186.012565 
L 239.685326 185.50938 
L 239.903359 185.991387 
L 240.012376 185.928896 
L 240.230409 185.387387 
L 240.339426 185.4717 
L 240.557459 185.975736 
L 240.666476 185.837571 
L 240.884509 185.332245 
L 241.211559 185.958331 
L 241.53861 185.367148 
L 241.86566 185.951343 
L 242.19271 185.491908 
L 242.51976 185.96648 
L 242.737793 185.630288 
L 242.84681 185.682611 
L 243.064843 186.033501 
L 243.282877 185.878489 
L 243.391893 185.815074 
L 243.82796 186.060632 
L 244.045993 185.994411 
L 244.373044 186.127092 
L 244.700094 186.084529 
L 245.027144 186.077779 
L 246.335344 185.505768 
L 246.662394 184.898932 
L 246.880427 184.985003 
L 246.989444 184.830578 
L 247.316494 183.782309 
L 247.534528 184.070662 
L 247.643544 183.790851 
L 247.970594 182.261596 
L 248.188628 182.811273 
L 248.297644 182.326311 
L 248.515678 180.400836 
L 248.624694 180.366455 
L 248.842728 181.180774 
L 249.060761 178.982502 
L 249.169778 177.996679 
L 249.278795 178.161268 
L 249.496828 179.179925 
L 249.823878 175.307593 
L 249.932895 175.738076 
L 250.150928 176.84665 
L 250.477978 172.483578 
L 250.696012 174.366536 
L 250.805028 174.263502 
L 251.132078 169.695988 
L 251.350112 171.885649 
L 251.459128 171.559533 
L 251.786178 167.118949 
L 252.004212 169.439715 
L 252.113229 168.904564 
L 252.331262 165.038673 
L 252.440279 164.912004 
L 252.658312 167.170487 
L 252.767329 166.495248 
L 252.985362 163.083112 
L 253.094379 163.206487 
L 253.312412 165.232781 
L 253.421429 164.534073 
L 253.639462 161.813313 
L 253.748479 162.096961 
L 253.966512 163.781153 
L 254.075529 163.204138 
L 254.293562 161.313176 
L 254.402579 161.637794 
L 254.620612 162.952548 
L 254.729629 162.643788 
L 254.947662 161.601407 
L 255.056679 161.843875 
L 255.274713 162.847338 
L 255.383729 162.925624 
L 255.601763 162.634413 
L 255.710779 162.693857 
L 255.928813 163.512086 
L 256.146846 164.352998 
L 256.255863 164.316264 
L 256.364879 164.134359 
L 256.473896 164.248386 
L 256.800946 166.569272 
L 256.909963 166.513085 
L 257.127996 166.094111 
L 257.455046 169.232206 
L 257.564063 169.068978 
L 257.782096 168.440776 
L 258.109146 172.132551 
L 258.218163 171.820893 
L 258.32718 171.067354 
L 258.436197 171.143878 
L 258.763247 175.063275 
L 258.98128 173.832707 
L 259.090297 174.02583 
L 259.417347 177.840054 
L 259.63538 176.582529 
L 259.744397 176.89295 
L 260.071447 180.315805 
L 260.28948 179.167358 
L 260.398497 179.556557 
L 260.725547 182.388314 
L 260.94358 181.451126 
L 261.052597 181.854918 
L 261.379647 184.001443 
L 261.597681 183.324427 
L 261.706697 183.672299 
L 261.924731 185.059954 
L 262.033747 185.141409 
L 262.251781 184.716696 
L 262.469814 185.423812 
L 262.687847 185.830128 
L 262.905881 185.604846 
L 263.123914 185.902007 
L 263.341948 186.117456 
L 263.887031 186.019045 
L 264.105064 186.08997 
L 265.740315 185.022318 
L 266.067365 184.798125 
L 266.285398 184.779026 
L 266.830482 184.387697 
L 266.939498 184.49918 
L 267.048515 184.448523 
L 267.375565 183.905138 
L 267.484582 184.128527 
L 267.484582 184.128527 
" clip-path="url(#p5a8371fecb)" style="fill: none; stroke: #1f77b4; stroke-width: 1.5; stroke-linecap: square"/>
   </g>
   <g id="line2d_6">
    <defs>
     <path id="m331325d22d" d="M 3 0 
L -3 -3 
L -3 3 
z
" style="stroke: #000000; stroke-linejoin: miter"/>
    </defs>
    <g>
     <use xlink:href="#m331325d22d" x="278.3808" y="186.15744" style="stroke: #000000; stroke-linejoin: miter"/>
    </g>
   </g>
   <g id="line2d_7">
    <defs>
     <path id="m975033901c" d="M 0 -3 
L -3 3 
L 3 3 
z
" style="stroke: #000000; stroke-linejoin: miter"/>
    </defs>
    <g>
     <use xlink:href="#m975033901c" x="49.560218" y="26.12736" style="stroke: #000000; stroke-linejoin: miter"/>
    </g>
   </g>
   <g id="patch_3">
    <path d="M 49.560218 193.77792 
L 49.560218 26.12736 
" style="fill: none; stroke: #000000; stroke-width: 0.8; stroke-linejoin: miter; stroke-linecap: square"/>
   </g>
   <g id="patch_4">
    <path d="M 38.664 186.15744 
L 278.3808 186.15744 
" style="fill: none; stroke: #000000; stroke-width: 0.8; stroke-linejoin: miter; stroke-linecap: square"/>
   </g>
  </g>
 </g>
 <defs>
  <clipPath id="p5a8371fecb">
   <rect x="38.664" y="26.12736" width="239.7168" height="167.65056"/>
  </clipPath>
 </defs>
</svg>
